<svg viewBox="0 0 14 14" xmlns="http://www.w3.org/2000/svg"><path d="m9.1522506 1.2605909c-.515657-.45969799-1.139995-.27517099-1.756471.271934-.09157.0814-.182677.171577-.273322.267771-1.053975 1.118259-2.032567 3.189674-2.336874 4.771793.118393.240024.210887.546643.271934.780654.01572.06012.0296.116543.04116.164178.02682.113306.04116.187301.04116.187301s-.0092-.03561-.0481-.148453c-.0074-.02174-.01572-.04532-.02544-.07307-.0042-.01156-.0097-.02544-.01619-.04023-.06891-.160016-.258984-.497158-.342692-.644224-.07168.21135-.135042.408825-.187764.587802.241873.442124.38894 1.200117.38894 1.200117s-.01295-.04902-.07353-.2206c-.05411-.151691-.322344-.622025-.386165-.732094-.108681.401889-.152154.672898-.112843.739031.07585.128105.147991.348705.21135.59289.142904.54988.242335 1.2195411.242335 1.2195411s.0032.0444.0088.112843c-.01989.46201-.0079.94067.02775 1.373544.04763.573004.136429 1.065075.250197 1.328684l.07723-.04209c-.166952-.518894-.234936-1.199192-.205338-1.983545.04486-1.1991921.320956-2.6448811.830601-4.1520801.861587-2.274903 2.056616-4.100283 3.149902-4.972044-.996629.900435-2.346124 3.814475-2.749863 4.893424-.452298 1.208441-.772792 2.342424-.965643 3.4287721.333443-1.0183651 1.410542-1.4563261 1.410542-1.4563261s.528606-.651624 1.146007-1.582582c-.369978.08417-.977205.228924-1.180693.314482-.300144.125792-.381077.168802-.381077.168802s.972117-.591965 1.805956-.860199c1.146932-1.806418 2.3965334-4.373142 1.138145-5.496025z"/></svg>